<?xml version="1.0" encoding="us-ascii" standalone="no"?><svg xmlns="http://www.w3.org/2000/svg" xmlns:xlink="http://www.w3.org/1999/xlink" contentStyleType="text/css" height="412px" preserveAspectRatio="none" style="width:934px;height:412px;background:#FFFFFF;" version="1.1" viewBox="0 0 934 412" width="934px" zoomAndPan="magnify"><defs/><g><!--cluster pkg_realisation_projets--><g id="cluster_pkg_realisation_projets"><path d="M121.5,6 L288.5,6 A3.75,3.75 0 0 1 291,8.5 L298,29.6094 L924.5,29.6094 A2.5,2.5 0 0 1 927,32.1094 L927,307.5 A2.5,2.5 0 0 1 924.5,310 L121.5,310 A2.5,2.5 0 0 1 119,307.5 L119,8.5 A2.5,2.5 0 0 1 121.5,6 " fill="none" style="stroke:#000000;stroke-width:1.5;"/><line style="stroke:#000000;stroke-width:1.5;" x1="119" x2="298" y1="29.6094" y2="29.6094"/><text fill="#000000" font-family="sans-serif" font-size="14" font-weight="bold" lengthAdjust="spacing" textLength="166" x="123" y="22.5332">pkg_realisation_projets</text></g><g id="elem_Soumet le livrable pour validation"><ellipse cx="320.9467" cy="68.7893" fill="#F1F1F1" rx="121.9467" ry="26.7893" style="stroke:#181818;stroke-width:0.5;"/><text fill="#000000" font-family="sans-serif" font-size="14" lengthAdjust="spacing" textLength="209" x="216.4467" y="72.5179">Soumet le livrable pour validation</text></g><g id="elem_Consulte l'&#233;tat de son projet"><ellipse cx="320.7512" cy="154.8502" fill="#F1F1F1" rx="107.2512" ry="23.8502" style="stroke:#181818;stroke-width:0.5;"/><text fill="#000000" font-family="sans-serif" font-size="14" lengthAdjust="spacing" textLength="177" x="232.2512" y="158.5788">Consulte l'&#233;tat de son projet</text></g><g id="elem_Consulte la liste des projets r&#233;alis&#233;s"><ellipse cx="766.3511" cy="259.9702" fill="#F1F1F1" rx="130.3511" ry="28.4702" style="stroke:#181818;stroke-width:0.5;"/><text fill="#000000" font-family="sans-serif" font-size="14" lengthAdjust="spacing" textLength="227" x="652.8511" y="263.6987">Consulte la liste des projets r&#233;alis&#233;s</text></g><g id="elem_Consulte l'&#233;tat de progression et validation des projets"><ellipse cx="320.8779" cy="254.0756" fill="#F1F1F1" rx="185.8779" ry="39.5756" style="stroke:#181818;stroke-width:0.5;"/><text fill="#000000" font-family="sans-serif" font-size="14" lengthAdjust="spacing" textLength="343" x="149.3779" y="257.8041">Consulte l'&#233;tat de progression et validation des projets</text></g><g id="elem_Change l'&#233;tat des projets en progression"><ellipse cx="766.5214" cy="73.8043" fill="#F1F1F1" rx="144.5214" ry="31.3043" style="stroke:#181818;stroke-width:0.5;"/><text fill="#000000" font-family="sans-serif" font-size="14" lengthAdjust="spacing" textLength="257" x="638.0214" y="77.5328">Change l'&#233;tat des projets en progression</text></g><!--entity apprenant--><g id="elem_apprenant"><ellipse cx="39" cy="82.5" fill="#F1F1F1" rx="8" ry="8" style="stroke:#181818;stroke-width:0.5;"/><path d="M39,90.5 L39,117.5 M26,98.5 L52,98.5 M39,117.5 L26,132.5 M39,117.5 L52,132.5 " fill="none" style="stroke:#181818;stroke-width:0.5;"/><text fill="#000000" font-family="sans-serif" font-size="14" lengthAdjust="spacing" textLength="66" x="6" y="148.5332">Apprenant</text></g><!--entity formateur--><g id="elem_formateur"><ellipse cx="321" cy="337.5" fill="#F1F1F1" rx="8" ry="8" style="stroke:#181818;stroke-width:0.5;"/><path d="M321,345.5 L321,372.5 M308,353.5 L334,353.5 M321,372.5 L308,387.5 M321,372.5 L334,387.5 " fill="none" style="stroke:#181818;stroke-width:0.5;"/><text fill="#000000" font-family="sans-serif" font-size="14" lengthAdjust="spacing" textLength="66" x="288" y="403.5332">Formateur</text></g><!--link apprenant to Soumet le livrable pour validation--><g id="link_apprenant_Soumet le livrable pour validation"><path d="M72.17,107.78 C81.77,106.23 92.31,104.54 102,103 C140.78,96.85 177.5213,91.092 214.7513,85.302 " fill="none" id="apprenant-to-Soumet le livrable pour validation" style="stroke:#181818;stroke-width:1.0;"/><polygon fill="#181818" points="220.68,84.38,211.1722,81.8106,215.7394,85.1484,212.4016,89.7155,220.68,84.38" style="stroke:#181818;stroke-width:1.0;"/></g><!--link apprenant to Consulte l'?tat de son projet--><g id="link_apprenant_Consulte l'&#233;tat de son projet"><path d="M72.12,117.82 C110.69,123.6 171.0364,132.6599 225.3664,140.8099 " fill="none" id="apprenant-to-Consulte l'&#233;tat de son projet" style="stroke:#181818;stroke-width:1.0;"/><polygon fill="#181818" points="231.3,141.7,222.993,136.4091,226.3553,140.9583,221.8062,144.3206,231.3,141.7" style="stroke:#181818;stroke-width:1.0;"/></g><!--link formateur to Consulte la liste des projets r?alis?s--><g id="link_formateur_Consulte la liste des projets r&#233;alis&#233;s"><path d="M354.25,360.15 C421.63,343.74 573.4404,306.7697 672.8104,282.5697 " fill="none" id="formateur-to-Consulte la liste des projets r&#233;alis&#233;s" style="stroke:#181818;stroke-width:1.0;"/><polygon fill="#181818" points="678.64,281.15,668.9491,279.3932,673.782,282.3331,670.8421,287.166,678.64,281.15" style="stroke:#181818;stroke-width:1.0;"/></g><!--reverse link Consulte l'?tat de progression et validation des projets to Consulte la liste des projets r?alis?s--><g id="link_Consulte l'&#233;tat de progression et validation des projets_Consulte la liste des projets r&#233;alis&#233;s"><path d="M512.8694,256.5816 C556.2494,257.1716 595.56,257.7 635.92,258.25 " fill="none" id="Consulte l'&#233;tat de progression et validation des projets-backto-Consulte la liste des projets r&#233;alis&#233;s" style="stroke:#181818;stroke-width:1.0;stroke-dasharray:7.0,7.0;"/><polygon fill="#181818" points="506.87,256.5,515.8148,260.622,511.8695,256.568,515.9236,252.6228,506.87,256.5" style="stroke:#181818;stroke-width:1.0;"/><text fill="#000000" font-family="sans-serif" font-size="13" lengthAdjust="spacing" textLength="53" x="538" y="253.4951">&#171;extend&#187;</text></g><!--reverse link Soumet le livrable pour validation to Change l'?tat des projets en progression--><g id="link_Soumet le livrable pour validation_Change l'&#233;tat des projets en progression"><path d="M448.8996,70.4284 C504.1696,71.0584 564.06,71.73 621.85,72.38 " fill="none" id="Soumet le livrable pour validation-backto-Change l'&#233;tat des projets en progression" style="stroke:#181818;stroke-width:1.0;stroke-dasharray:7.0,7.0;"/><polygon fill="#181818" points="442.9,70.36,451.8538,74.4623,447.8997,70.417,451.945,66.4628,442.9,70.36" style="stroke:#181818;stroke-width:1.0;"/><text fill="#000000" font-family="sans-serif" font-size="13" lengthAdjust="spacing" textLength="53" x="538" y="68.4951">&#171;extend&#187;</text></g><!--SRC=[bP11JiCm44NtESNiQ1Vj0L0K2I5n0GvG3SdKDNLjQsPI8Q4UAEV8nHX3GwB20dOpij__pmwqLz04xDr1eVDChVeKgwh2LXF3GyvC4QC22k2qN0-V4fzGgUTok9-MAcDxH4UGZsx7XC4BbinTvlHAAl1kwJ27mMRJmEevzITI20J1dnbVRCZ9ai_6Tv_y-YVqcABqGOsv6mT5Um21f0XVJGNujhe5q7h4Xeu49Z4UXs8x3bBGNzFjgcCICHymtTbk6RI6UhlzHndSGrtJcrBicgOq_-4phXK7Z6ufEETJNChUT5og3m00]--></g></svg>