<?xml version="1.0" encoding="us-ascii" standalone="no"?><svg xmlns="http://www.w3.org/2000/svg" xmlns:xlink="http://www.w3.org/1999/xlink" contentStyleType="text/css" height="611px" preserveAspectRatio="none" style="width:964px;height:611px;background:#FFFFFF;" version="1.1" viewBox="0 0 964 611" width="964px" zoomAndPan="magnify"><defs/><g><!--cluster pkg_competences--><g id="cluster_pkg_competences"><path d="M229.5,6 L359.5,6 A3.75,3.75 0 0 1 362,8.5 L369,29.6094 L954.5,29.6094 A2.5,2.5 0 0 1 957,32.1094 L957,601.5 A2.5,2.5 0 0 1 954.5,604 L229.5,604 A2.5,2.5 0 0 1 227,601.5 L227,8.5 A2.5,2.5 0 0 1 229.5,6 " fill="none" style="stroke:#000000;stroke-width:1.5;"/><line style="stroke:#000000;stroke-width:1.5;" x1="227" x2="369" y1="29.6094" y2="29.6094"/><text fill="#000000" font-family="sans-serif" font-size="14" font-weight="bold" lengthAdjust="spacing" textLength="129" x="231" y="22.5332">pkg_competences</text></g><g id="elem_Gestion des niveaux de comp&#233;tences"><ellipse cx="387.5829" cy="71.8166" fill="#F1F1F1" rx="134.5829" ry="29.3166" style="stroke:#181818;stroke-width:0.5;"/><text fill="#000000" font-family="sans-serif" font-size="14" lengthAdjust="spacing" textLength="236" x="269.5829" y="75.5451">Gestion des niveaux de comp&#233;tences</text></g><g id="elem_Gestion des technologies"><ellipse cx="387.613" cy="158.8226" fill="#F1F1F1" rx="99.613" ry="22.3226" style="stroke:#181818;stroke-width:0.5;"/><text fill="#000000" font-family="sans-serif" font-size="14" lengthAdjust="spacing" textLength="160" x="307.613" y="162.5511">Gestion des technologies</text></g><g id="elem_Gestion des cat&#233;gories des technologies"><ellipse cx="387.5214" cy="247.8043" fill="#F1F1F1" rx="144.5214" ry="31.3043" style="stroke:#181818;stroke-width:0.5;"/><text fill="#000000" font-family="sans-serif" font-size="14" lengthAdjust="spacing" textLength="257" x="259.0214" y="251.5328">Gestion des cat&#233;gories des technologies</text></g><g id="elem_Gestion des appreciation"><ellipse cx="387.7239" cy="337.1448" fill="#F1F1F1" rx="98.7239" ry="22.1448" style="stroke:#181818;stroke-width:0.5;"/><text fill="#000000" font-family="sans-serif" font-size="14" lengthAdjust="spacing" textLength="158" x="308.7239" y="340.8733">Gestion des appreciation</text></g><g id="elem_Gestion des comp&#233;tences"><ellipse cx="387.3975" cy="417.1795" fill="#F1F1F1" rx="101.3975" ry="22.6795" style="stroke:#181818;stroke-width:0.5;"/><text fill="#000000" font-family="sans-serif" font-size="14" lengthAdjust="spacing" textLength="164" x="305.3975" y="420.908">Gestion des comp&#233;tences</text></g><g id="elem_Gestion des modules"><ellipse cx="387.3193" cy="494.9639" fill="#F1F1F1" rx="87.8193" ry="19.9639" style="stroke:#181818;stroke-width:0.5;"/><text fill="#000000" font-family="sans-serif" font-size="14" lengthAdjust="spacing" textLength="133" x="320.8193" y="498.6924">Gestion des modules</text></g><g id="elem_Gestion des fili&#232;re"><ellipse cx="387.3789" cy="568.8758" fill="#F1F1F1" rx="79.8789" ry="18.3758" style="stroke:#181818;stroke-width:0.5;"/><text fill="#000000" font-family="sans-serif" font-size="14" lengthAdjust="spacing" textLength="114" x="329.3373" y="572.9024">Gestion des fili&#232;re</text></g><g id="elem_Ajouter"><ellipse cx="793.811" cy="268.9535" fill="#F1F1F1" rx="43.311" ry="15.4535" style="stroke:#181818;stroke-width:0.5;"/><text fill="#000000" font-family="sans-serif" font-size="14" lengthAdjust="spacing" textLength="45" x="770.8228" y="272.8329">Ajouter</text></g><g id="elem_Affecter la technologie &#224; une comp&#233;tence"><ellipse cx="793.8995" cy="73.7799" fill="#F1F1F1" rx="146.8995" ry="31.7799" style="stroke:#181818;stroke-width:0.5;"/><text fill="#000000" font-family="sans-serif" font-size="14" lengthAdjust="spacing" textLength="262" x="662.8995" y="77.5084">Affecter la technologie &#224; une comp&#233;tence</text></g><g id="elem_Affecter la technologie &#224; une cat&#233;gorie"><ellipse cx="793.859" cy="171.0718" fill="#F1F1F1" rx="138.359" ry="30.0718" style="stroke:#181818;stroke-width:0.5;"/><text fill="#000000" font-family="sans-serif" font-size="14" lengthAdjust="spacing" textLength="244" x="671.859" y="174.8003">Affecter la technologie &#224; une cat&#233;gorie</text></g><!--entity formateur--><g id="elem_formateur"><ellipse cx="93" cy="217.5" fill="#F1F1F1" rx="8" ry="8" style="stroke:#181818;stroke-width:0.5;"/><path d="M93,225.5 L93,252.5 M80,233.5 L106,233.5 M93,252.5 L80,267.5 M93,252.5 L106,267.5 " fill="none" style="stroke:#181818;stroke-width:0.5;"/><text fill="#000000" font-family="sans-serif" font-size="14" lengthAdjust="spacing" textLength="66" x="60" y="283.5332">Formateur</text></g><!--entity Responsable_de_formation--><g id="elem_Responsable_de_formation"><ellipse cx="93" cy="464.5" fill="#F1F1F1" rx="8" ry="8" style="stroke:#181818;stroke-width:0.5;"/><path d="M93,472.5 L93,499.5 M80,480.5 L106,480.5 M93,499.5 L80,514.5 M93,499.5 L106,514.5 " fill="none" style="stroke:#181818;stroke-width:0.5;"/><text fill="#000000" font-family="sans-serif" font-size="14" lengthAdjust="spacing" textLength="174" x="6" y="530.5332">Responsable_de_formation</text></g><!--link formateur to Gestion des niveaux de comp?tences--><g id="link_formateur_Gestion des niveaux de comp&#233;tences"><path d="M122.69,208.73 C145.69,179.93 180.42,141.99 219,119 C239.11,107.02 262.39,97.98 285.09,91.21 " fill="none" id="formateur-Gestion des niveaux de comp&#233;tences" style="stroke:#181818;stroke-width:1.0;"/></g><!--link formateur to Gestion des technologies--><g id="link_formateur_Gestion des technologies"><path d="M126.19,233.95 C151.18,223.39 186.86,209.08 219,199 C249.52,189.42 283.79,180.86 313.35,174.15 " fill="none" id="formateur-Gestion des technologies" style="stroke:#181818;stroke-width:1.0;"/></g><!--link formateur to Gestion des cat?gories des technologies--><g id="link_formateur_Gestion des cat&#233;gories des technologies"><path d="M126.14,248 C154.86,248 199.05,248 242.93,248 " fill="none" id="formateur-Gestion des cat&#233;gories des technologies" style="stroke:#181818;stroke-width:1.0;"/></g><!--link formateur to Gestion des appreciation--><g id="link_formateur_Gestion des appreciation"><path d="M126.19,262.05 C151.18,272.61 186.86,286.92 219,297 C249.95,306.71 284.75,315.37 314.59,322.14 " fill="none" id="formateur-Gestion des appreciation" style="stroke:#181818;stroke-width:1.0;"/></g><!--link formateur to Gestion des comp?tences--><g id="link_formateur_Gestion des comp&#233;tences"><path d="M122.3,287.03 C145.22,315.84 180.02,353.75 219,376 C243.57,390.02 272.83,399.28 299.96,405.38 " fill="none" id="formateur-Gestion des comp&#233;tences" style="stroke:#181818;stroke-width:1.0;"/></g><!--link Responsable_de_formation to Gestion des comp?tences--><g id="link_Responsable_de_formation_Gestion des comp&#233;tences"><path d="M180.21,468.05 C193.17,464.21 206.41,460.41 219,457 C250.45,448.47 285.49,439.95 315.35,432.98 " fill="none" id="Responsable_de_formation-Gestion des comp&#233;tences" style="stroke:#181818;stroke-width:1.0;"/></g><!--link Responsable_de_formation to Gestion des modules--><g id="link_Responsable_de_formation_Gestion des modules"><path d="M180.18,495 C217.76,495 261.74,495 299.42,495 " fill="none" id="Responsable_de_formation-Gestion des modules" style="stroke:#181818;stroke-width:1.0;"/></g><!--link Responsable_de_formation to Gestion des fili?re--><g id="link_Responsable_de_formation_Gestion des fili&#232;re"><path d="M180.19,521.37 C193.15,525.09 206.4,528.75 219,532 C254.47,541.15 294.52,550.05 326.57,556.83 " fill="none" id="Responsable_de_formation-Gestion des fili&#232;re" style="stroke:#181818;stroke-width:1.0;"/></g><!--reverse link Gestion des technologies to Ajouter--><g id="link_Gestion des technologies_Ajouter"><path d="M457.9398,177.8841 C544.7098,201.4741 691.27,241.33 758.94,259.74 " fill="none" id="Gestion des technologies-backto-Ajouter" style="stroke:#181818;stroke-width:1.0;stroke-dasharray:7.0,7.0;"/><polygon fill="#181818" points="452.15,176.31,459.7854,182.531,456.9749,177.6217,461.8841,174.8112,452.15,176.31" style="stroke:#181818;stroke-width:1.0;"/><text fill="#000000" font-family="sans-serif" font-size="13" lengthAdjust="spacing" textLength="53" x="563" y="204.4951">&#171;extend&#187;</text></g><!--reverse link Ajouter to Affecter la technologie ? une comp?tence--><g id="link_Ajouter_Affecter la technologie &#224; une comp&#233;tence"><path d="M750.4252,259.8142 C679.5552,243.3742 543.72,202.64 592,137 C609.41,113.33 635.67,98.3 663.54,88.82 " fill="none" id="Ajouter-backto-Affecter la technologie &#224; une comp&#233;tence" style="stroke:#181818;stroke-width:1.0;stroke-dasharray:7.0,7.0;"/><polygon fill="#181818" points="756.27,261.17,748.4067,255.2397,751.3993,260.0401,746.5989,263.0328,756.27,261.17" style="stroke:#181818;stroke-width:1.0;"/><text fill="#000000" font-family="sans-serif" font-size="13" lengthAdjust="spacing" textLength="53" x="563" y="151.4951">&#171;extend&#187;</text></g><!--reverse link Ajouter to Affecter la technologie ? une cat?gorie--><g id="link_Ajouter_Affecter la technologie &#224; une cat&#233;gorie"><path d="M794,247.25 C794,233.3 794,218.52 794,201.34 " fill="none" id="Ajouter-backto-Affecter la technologie &#224; une cat&#233;gorie" style="stroke:#181818;stroke-width:1.0;stroke-dasharray:7.0,7.0;"/><polygon fill="#181818" points="794,253.25,798,244.25,794,248.25,790,244.25,794,253.25" style="stroke:#181818;stroke-width:1.0;"/><text fill="#000000" font-family="sans-serif" font-size="13" lengthAdjust="spacing" textLength="53" x="755.5" y="232.7451">&#171;extend&#187;</text></g><!--SRC=[bPD1JiCm44NtFiMe6yYYaTYYg18Rs7E1oDZZrDJnM8w3AY7kmfAU8nTZd9QgfMgZB2B5-VzzpumTXoP18eYsMIVGDg9AbhmGGgf44PufjZ9X7q5sOFuM1_4Lkq2-asyEQutrNcOwUwzfGWIfDh9129kcLjG6JEWLTl0f103mSzm6bak0-nVinb3D7cy_KFPRVeUC3hizMqnW2TNQawF6JdkLJCEkeSZMI_OsAaFW-TcnpmdhMVMvyQkpd43da2tftis5Z7Ls-8cOAP4hlJ7PgYnPVtgdFc4iu16g2hTSgLwjnAbGbRmmXkyQHd3oD0M6R-ZzsV4MV2t-HStCEXxfHTHNRkeEF2Ky_0DaGEhMUlOjniyF2_4B]--></g></svg>