<?xml version="1.0" encoding="us-ascii" standalone="no"?><svg xmlns="http://www.w3.org/2000/svg" xmlns:xlink="http://www.w3.org/1999/xlink" contentStyleType="text/css" height="356px" preserveAspectRatio="none" style="width:1209px;height:356px;background:#FFFFFF;" version="1.1" viewBox="0 0 1209 356" width="1209px" zoomAndPan="magnify"><defs/><g><!--cluster pkg_suivi--><g id="cluster_pkg_suivi"><path d="M8.5,107.5 L77.5,107.5 A3.75,3.75 0 0 1 80,110 L87,131.1094 L1199.5,131.1094 A2.5,2.5 0 0 1 1202,133.6094 L1202,347 A2.5,2.5 0 0 1 1199.5,349.5 L8.5,349.5 A2.5,2.5 0 0 1 6,347 L6,110 A2.5,2.5 0 0 1 8.5,107.5 " fill="none" style="stroke:#000000;stroke-width:1.5;"/><line style="stroke:#000000;stroke-width:1.5;" x1="6" x2="87" y1="131.1094" y2="131.1094"/><text fill="#000000" font-family="sans-serif" font-size="14" font-weight="bold" lengthAdjust="spacing" textLength="68" x="10" y="124.0332">pkg_suivi</text></g><g id="elem_suivi l'avencement des projets"><ellipse cx="838.2192" cy="172.4438" fill="#F1F1F1" rx="112.7192" ry="24.9438" style="stroke:#181818;stroke-width:0.5;"/><text fill="#000000" font-family="sans-serif" font-size="14" lengthAdjust="spacing" textLength="189" x="743.7192" y="176.1724">suivi l'avencement des projets</text></g><g id="elem_suivi l'avencement des comp&#233;tences"><ellipse cx="538.7597" cy="172.2519" fill="#F1F1F1" rx="131.7597" ry="28.7519" style="stroke:#181818;stroke-width:0.5;"/><text fill="#000000" font-family="sans-serif" font-size="14" lengthAdjust="spacing" textLength="230" x="423.7597" y="175.9805">suivi l'avencement des comp&#233;tences</text></g><g id="elem_consulter la table d'avencement des projet"><ellipse cx="847.7816" cy="297.2563" fill="#F1F1F1" rx="149.2816" ry="32.2563" style="stroke:#181818;stroke-width:0.5;"/><text fill="#000000" font-family="sans-serif" font-size="14" lengthAdjust="spacing" textLength="267" x="714.2816" y="300.9848">consulter la table d'avencement des projet</text></g><g id="elem_filtrer des projets"><ellipse cx="1109.2363" cy="297.7473" fill="#F1F1F1" rx="76.7363" ry="17.7473" style="stroke:#181818;stroke-width:0.5;"/><text fill="#000000" font-family="sans-serif" font-size="14" lengthAdjust="spacing" textLength="106" x="1053.7006" y="302.1555">filtrer des projets</text></g><g id="elem_consulter la table de validation des comp&#233;tences"><ellipse cx="190.9639" cy="297.5928" fill="#F1F1F1" rx="168.4639" ry="36.0928" style="stroke:#181818;stroke-width:0.5;"/><text fill="#000000" font-family="sans-serif" font-size="14" lengthAdjust="spacing" textLength="307" x="37.4639" y="301.3213">consulter la table de validation des comp&#233;tences</text></g><g id="elem_filtrer les comp&#233;tences par apprenant"><ellipse cx="529.0829" cy="297.3166" fill="#F1F1F1" rx="134.5829" ry="29.3166" style="stroke:#181818;stroke-width:0.5;"/><text fill="#000000" font-family="sans-serif" font-size="14" lengthAdjust="spacing" textLength="236" x="411.0829" y="301.0451">filtrer les comp&#233;tences par apprenant</text></g><!--entity Formateur--><g id="elem_Formateur"><ellipse cx="638" cy="14" fill="#F1F1F1" rx="8" ry="8" style="stroke:#181818;stroke-width:0.5;"/><path d="M638,22 L638,49 M625,30 L651,30 M638,49 L625,64 M638,49 L651,64 " fill="none" style="stroke:#181818;stroke-width:0.5;"/><text fill="#000000" font-family="sans-serif" font-size="14" lengthAdjust="spacing" textLength="66" x="605" y="80.0332">Formateur</text></g><!--entity Apprenant--><g id="elem_Apprenant"><ellipse cx="788" cy="14" fill="#F1F1F1" rx="8" ry="8" style="stroke:#181818;stroke-width:0.5;"/><path d="M788,22 L788,49 M775,30 L801,30 M788,49 L775,64 M788,49 L801,64 " fill="none" style="stroke:#181818;stroke-width:0.5;"/><text fill="#000000" font-family="sans-serif" font-size="14" lengthAdjust="spacing" textLength="66" x="755" y="80.0332">Apprenant</text></g><!--link Formateur to suivi l'avencement des projets--><g id="link_Formateur_suivi l'avencement des projets"><path d="M671.03,66.31 C707.08,89.02 759.5628,122.0929 796.8028,145.5429 " fill="none" id="Formateur-to-suivi l'avencement des projets" style="stroke:#181818;stroke-width:1.0;"/><polygon fill="#181818" points="801.88,148.74,796.3956,140.5595,797.649,146.0757,792.1327,147.3291,801.88,148.74" style="stroke:#181818;stroke-width:1.0;"/></g><!--link Formateur to suivi l'avencement des comp?tences--><g id="link_Formateur_suivi l'avencement des comp&#233;tences"><path d="M608.03,83.65 C592.78,103.06 578.2863,121.5016 564.4063,139.1716 " fill="none" id="Formateur-to-suivi l'avencement des comp&#233;tences" style="stroke:#181818;stroke-width:1.0;"/><polygon fill="#181818" points="560.7,143.89,569.4051,139.2833,563.7886,139.958,563.1139,134.3415,560.7,143.89" style="stroke:#181818;stroke-width:1.0;"/></g><!--link Apprenant to suivi l'avencement des projets--><g id="link_Apprenant_suivi l'avencement des projets"><path d="M803.14,83.65 C811.36,104.36 819.0571,123.773 826.2071,141.793 " fill="none" id="Apprenant-to-suivi l'avencement des projets" style="stroke:#181818;stroke-width:1.0;"/><polygon fill="#181818" points="828.42,147.37,828.8187,137.5292,826.5759,142.7225,821.3827,140.4797,828.42,147.37" style="stroke:#181818;stroke-width:1.0;"/></g><!--link Apprenant to suivi l'avencement des comp?tences--><g id="link_Apprenant_suivi l'avencement des comp&#233;tences"><path d="M754.93,62.23 C712.73,83.59 644.6537,118.0412 595.2837,143.0212 " fill="none" id="Apprenant-to-suivi l'avencement des comp&#233;tences" style="stroke:#181818;stroke-width:1.0;"/><polygon fill="#181818" points="589.93,145.73,599.7665,145.2359,594.3914,143.4726,596.1547,138.0976,589.93,145.73" style="stroke:#181818;stroke-width:1.0;"/></g><!--reverse link suivi l'avencement des projets to consulter la table d'avencement des projet--><g id="link_suivi l'avencement des projets_consulter la table d'avencement des projet"><path d="M840.4372,203.4902 C841.9972,222.6402 843.7,243.67 845.41,264.63 " fill="none" id="suivi l'avencement des projets-backto-consulter la table d'avencement des projet" style="stroke:#181818;stroke-width:1.0;stroke-dasharray:7.0,7.0;"/><polygon fill="#181818" points="839.95,197.51,836.6939,206.8051,840.356,202.4935,844.6675,206.1555,839.95,197.51" style="stroke:#181818;stroke-width:1.0;"/></g><!--reverse link suivi l'avencement des projets to filtrer des projets--><g id="link_suivi l'avencement des projets_filtrer des projets"><path d="M891.2938,197.6892 C945.9938,222.5092 1028.64,260.03 1076.13,281.58 " fill="none" id="suivi l'avencement des projets-backto-filtrer des projets" style="stroke:#181818;stroke-width:1.0;stroke-dasharray:7.0,7.0;"/><polygon fill="#181818" points="885.83,195.21,892.373,202.5714,890.3832,197.276,895.6786,195.2862,885.83,195.21" style="stroke:#181818;stroke-width:1.0;"/></g><!--reverse link suivi l'avencement des comp?tences to consulter la table de validation des comp?tences--><g id="link_suivi l'avencement des comp&#233;tences_consulter la table de validation des comp&#233;tences"><path d="M465.4228,199.5092 C409.7328,219.1892 336.28,245.15 276.33,266.34 " fill="none" id="suivi l'avencement des comp&#233;tences-backto-consulter la table de validation des comp&#233;tences" style="stroke:#181818;stroke-width:1.0;stroke-dasharray:7.0,7.0;"/><polygon fill="#181818" points="471.08,197.51,461.2615,196.7373,466.3657,199.176,463.927,204.2802,471.08,197.51" style="stroke:#181818;stroke-width:1.0;"/></g><!--reverse link suivi l'avencement des comp?tences to filtrer les comp?tences par apprenant--><g id="link_suivi l'avencement des comp&#233;tences_filtrer les comp&#233;tences par apprenant"><path d="M536.2222,207.7001 C534.6022,227.5601 532.94,248.06 531.32,267.99 " fill="none" id="suivi l'avencement des comp&#233;tences-backto-filtrer les comp&#233;tences par apprenant" style="stroke:#181818;stroke-width:1.0;stroke-dasharray:7.0,7.0;"/><polygon fill="#181818" points="536.71,201.72,531.9915,210.365,536.3035,206.7034,539.965,211.0154,536.71,201.72" style="stroke:#181818;stroke-width:1.0;"/></g><!--SRC=[bP1H2i8m38RVUuh_pUrXEu48ldWDYLqSrQujNRONyK2UmujP9ogAOeKGICBtvqz8YuzO-TYHy10LJVKoXCYEd2WLIE-fPOHzk-u7CneSbCAJG5KjKDmcTaOZEyqTEq73FKBqEvQ-p0QqxyBv9DTUeXBsS9Ax9mzutGEa-AMDULsZqDxrWnMEi0IXZMKqduaoMtDhhCIa-7P9blVlhXWZMTEG6Ey-tlo7_jsXVHiZK0JTFpuzKXrJkW00]--></g></svg>