<?xml version="1.0" encoding="us-ascii" standalone="no"?><svg xmlns="http://www.w3.org/2000/svg" xmlns:xlink="http://www.w3.org/1999/xlink" contentStyleType="text/css" height="205px" preserveAspectRatio="none" style="width:636px;height:205px;background:#FFFFFF;" version="1.1" viewBox="0 0 636 205" width="636px" zoomAndPan="magnify"><defs/><g><!--cluster pkg_formations--><g id="cluster_pkg_formations"><path d="M129.5,6 L239.5,6 A3.75,3.75 0 0 1 242,8.5 L249,29.6094 L626.5,29.6094 A2.5,2.5 0 0 1 629,32.1094 L629,183.5 A2.5,2.5 0 0 1 626.5,186 L129.5,186 A2.5,2.5 0 0 1 127,183.5 L127,8.5 A2.5,2.5 0 0 1 129.5,6 " fill="none" style="stroke:#000000;stroke-width:1.5;"/><line style="stroke:#000000;stroke-width:1.5;" x1="127" x2="249" y1="29.6094" y2="29.6094"/><text fill="#000000" font-family="sans-serif" font-size="14" font-weight="bold" lengthAdjust="spacing" textLength="109" x="131" y="22.5332">pkg_formations</text></g><g id="elem_Gestions des formations"><ellipse cx="253.011" cy="64.2022" fill="#F1F1F1" rx="96.511" ry="21.7022" style="stroke:#181818;stroke-width:0.5;"/><text fill="#000000" font-family="sans-serif" font-size="14" lengthAdjust="spacing" textLength="153" x="176.511" y="67.9307">Gestions des formations</text></g><g id="elem_Consultations des formations"><ellipse cx="252.9781" cy="144.8956" fill="#F1F1F1" rx="109.9781" ry="24.3956" style="stroke:#181818;stroke-width:0.5;"/><text fill="#000000" font-family="sans-serif" font-size="14" lengthAdjust="spacing" textLength="183" x="161.4781" y="148.6241">Consultations des formations</text></g><g id="elem_Authentification"><ellipse cx="539.376" cy="99.0752" fill="#F1F1F1" rx="73.376" ry="17.0752" style="stroke:#181818;stroke-width:0.5;"/><text fill="#000000" font-family="sans-serif" font-size="14" lengthAdjust="spacing" textLength="97" x="487.876" y="103.5918">Authentification</text></g><!--entity Formateur--><g id="elem_Formateur"><ellipse cx="43" cy="17.5" fill="#F1F1F1" rx="8" ry="8" style="stroke:#181818;stroke-width:0.5;"/><path d="M43,25.5 L43,52.5 M30,33.5 L56,33.5 M43,52.5 L30,67.5 M43,52.5 L56,67.5 " fill="none" style="stroke:#181818;stroke-width:0.5;"/><text fill="#000000" font-family="sans-serif" font-size="14" lengthAdjust="spacing" textLength="66" x="10" y="83.5332">Formateur</text></g><!--entity Apprennant--><g id="elem_Apprennant"><ellipse cx="43" cy="130.5" fill="#F1F1F1" rx="8" ry="8" style="stroke:#181818;stroke-width:0.5;"/><path d="M43,138.5 L43,165.5 M30,146.5 L56,146.5 M43,165.5 L30,180.5 M43,165.5 L56,180.5 " fill="none" style="stroke:#181818;stroke-width:0.5;"/><text fill="#000000" font-family="sans-serif" font-size="14" lengthAdjust="spacing" textLength="74" x="6" y="196.5332">Apprennant</text></g><!--link Formateur to Gestions des formations--><g id="link_Formateur_Gestions des formations"><path d="M76.04,50.46 C98.95,52.23 130.99,54.69 161.46,57.04 " fill="none" id="Formateur-Gestions des formations" style="stroke:#181818;stroke-width:1.0;"/></g><!--link Apprennant to Consultations des formations--><g id="link_Apprennant_Consultations des formations"><path d="M80.23,158.21 C99.44,156.74 124.1,154.84 148.71,152.95 " fill="none" id="Apprennant-Consultations des formations" style="stroke:#181818;stroke-width:1.0;"/></g><!--link Gestions des formations to Authentification--><g id="link_Gestions des formations_Authentification"><path d="M337.82,74.31 C381.42,79.68 427.9248,85.398 468.2748,90.358 " fill="none" id="Gestions des formations-to-Authentification" style="stroke:#181818;stroke-width:1.0;stroke-dasharray:7.0,7.0;"/><polygon fill="#181818" points="474.23,91.09,465.7853,86.0218,469.2674,90.48,464.8092,93.9621,474.23,91.09" style="stroke:#181818;stroke-width:1.0;"/><text fill="#000000" font-family="sans-serif" font-size="13" lengthAdjust="spacing" textLength="41" x="394" y="78.4951">include</text></g><!--link Consultations des formations to Authentification--><g id="link_Consultations des formations_Authentification"><path d="M342.46,130.7 C386.83,123.52 433.4569,115.9877 472.9769,109.5977 " fill="none" id="Consultations des formations-to-Authentification" style="stroke:#181818;stroke-width:1.0;stroke-dasharray:7.0,7.0;"/><polygon fill="#181818" points="478.9,108.64,469.3769,106.1278,473.9641,109.4381,470.6539,114.0253,478.9,108.64" style="stroke:#181818;stroke-width:1.0;"/><text fill="#000000" font-family="sans-serif" font-size="13" lengthAdjust="spacing" textLength="41" x="394" y="113.4951">include</text></g><!--SRC=[XOqn3eCm34Ltd-AFCC01EbH2bTfZL55mGWHDek1Cg7Tle9NeGYjvyVVxpnCRWGGaPmT1xn9hSS4JAIqXuHhIGmddzDcx61Dxhxo0A2ezAik8exsR3IpD6GiHzYAQ1jMDv_UjvnaxMXVmoxYIbnBdITGHNkRGXhOze-go3Ep56QUtlCO9pkifzxoMVpxuRtZI2m00]--></g></svg>