<?xml version="1.0" encoding="us-ascii" standalone="no"?><svg xmlns="http://www.w3.org/2000/svg" xmlns:xlink="http://www.w3.org/1999/xlink" contentStyleType="text/css" height="260px" preserveAspectRatio="none" style="width:1385px;height:260px;background:#FFFFFF;" version="1.1" viewBox="0 0 1385 260" width="1385px" zoomAndPan="magnify"><defs/><g><!--cluster pkg_validations--><g id="cluster_pkg_validations"><path d="M654.5,6 L766.5,6 A3.75,3.75 0 0 1 769,8.5 L776,29.6094 L1375.5,29.6094 A2.5,2.5 0 0 1 1378,32.1094 L1378,250.5 A2.5,2.5 0 0 1 1375.5,253 L654.5,253 A2.5,2.5 0 0 1 652,250.5 L652,8.5 A2.5,2.5 0 0 1 654.5,6 " fill="none" style="stroke:#000000;stroke-width:1.5;"/><line style="stroke:#000000;stroke-width:1.5;" x1="652" x2="776" y1="29.6094" y2="29.6094"/><text fill="#000000" font-family="sans-serif" font-size="14" font-weight="bold" lengthAdjust="spacing" textLength="111" x="656" y="22.5332">pkg_validations</text></g><!--cluster pkg_realisation_projet--><g id="cluster_pkg_realisation_projet"><path d="M121.5,55 L280.5,55 A3.75,3.75 0 0 1 283,57.5 L290,78.6094 L560.5,78.6094 A2.5,2.5 0 0 1 563,81.1094 L563,192.5 A2.5,2.5 0 0 1 560.5,195 L121.5,195 A2.5,2.5 0 0 1 119,192.5 L119,57.5 A2.5,2.5 0 0 1 121.5,55 " fill="none" style="stroke:#000000;stroke-width:1.5;"/><line style="stroke:#000000;stroke-width:1.5;" x1="119" x2="290" y1="78.6094" y2="78.6094"/><text fill="#000000" font-family="sans-serif" font-size="14" font-weight="bold" lengthAdjust="spacing" textLength="158" x="123" y="71.5332">pkg_realisation_projet</text></g><g id="elem_Valider un Projet"><ellipse cx="744.355" cy="135.171" fill="#F1F1F1" rx="76.355" ry="17.671" style="stroke:#181818;stroke-width:0.5;"/><text fill="#000000" font-family="sans-serif" font-size="14" lengthAdjust="spacing" textLength="105" x="689.1233" y="139.6255">Valider un Projet</text></g><g id="elem_D&#233;finir les Appreciation de Validation pour chaque comp&#233;tence"><ellipse cx="1150.1849" cy="191.837" fill="#F1F1F1" rx="212.1849" ry="44.837" style="stroke:#181818;stroke-width:0.5;"/><text fill="#000000" font-family="sans-serif" font-size="14" lengthAdjust="spacing" textLength="397" x="951.6849" y="195.5655">D&#233;finir les Appreciation de Validation pour chaque comp&#233;tence</text></g><g id="elem_Saisie des Messages pour chaque comp&#233;tence"><ellipse cx="1150.1306" cy="77.2261" fill="#F1F1F1" rx="164.1306" ry="35.2261" style="stroke:#181818;stroke-width:0.5;"/><text fill="#000000" font-family="sans-serif" font-size="14" lengthAdjust="spacing" textLength="298" x="1001.1306" y="80.9546">Saisie des Messages pour chaque comp&#233;tence</text></g><g id="elem_Consulter la liste des projets r&#233;alis&#233;s en attente de validation"><ellipse cx="340.8351" cy="135.067" fill="#F1F1F1" rx="205.8351" ry="43.567" style="stroke:#181818;stroke-width:0.5;"/><text fill="#000000" font-family="sans-serif" font-size="14" lengthAdjust="spacing" textLength="384" x="148.8351" y="138.7955">Consulter la liste des projets r&#233;alis&#233;s en attente de validation</text></g><!--entity Formateur--><g id="elem_Formateur"><ellipse cx="39" cy="104.5" fill="#F1F1F1" rx="8" ry="8" style="stroke:#181818;stroke-width:0.5;"/><path d="M39,112.5 L39,139.5 M26,120.5 L52,120.5 M39,139.5 L26,154.5 M39,139.5 L52,154.5 " fill="none" style="stroke:#181818;stroke-width:0.5;"/><text fill="#000000" font-family="sans-serif" font-size="14" lengthAdjust="spacing" textLength="66" x="6" y="170.5332">Formateur</text></g><!--reverse link Valider un Projet to D?finir les Appreciation de Validation pour chaque comp?tence--><g id="link_Valider un Projet_D&#233;finir les Appreciation de Validation pour chaque comp&#233;tence"><path d="M811.3258,146.6419 C826.2058,149.1619 836.21,150.77 851,153 C888.41,158.64 928.53,164.21 966.82,169.3 " fill="none" id="Valider un Projet-backto-D&#233;finir les Appreciation de Validation pour chaque comp&#233;tence" style="stroke:#181818;stroke-width:1.0;stroke-dasharray:7.0,7.0;"/><polygon fill="#181818" points="805.41,145.64,813.6157,151.0866,810.3398,146.4749,814.9516,143.199,805.41,145.64" style="stroke:#181818;stroke-width:1.0;"/><text fill="#000000" font-family="sans-serif" font-size="13" lengthAdjust="spacing" textLength="55" x="852" y="149.4951">&#171;Extend&#187;</text></g><!--reverse link Valider un Projet to Saisie des Messages pour chaque comp?tence--><g id="link_Valider un Projet_Saisie des Messages pour chaque comp&#233;tence"><path d="M815.8188,124.8955 C870.4488,117.0355 944.71,106.36 1013.41,96.49 " fill="none" id="Valider un Projet-backto-Saisie des Messages pour chaque comp&#233;tence" style="stroke:#181818;stroke-width:1.0;stroke-dasharray:7.0,7.0;"/><polygon fill="#181818" points="809.88,125.75,819.3579,128.4275,814.829,125.0379,818.2186,120.5091,809.88,125.75" style="stroke:#181818;stroke-width:1.0;"/><text fill="#000000" font-family="sans-serif" font-size="13" lengthAdjust="spacing" textLength="55" x="852" y="109.4951">&#171;Extend&#187;</text></g><!--link Formateur to Consulter la liste des projets r?alis?s en attente de validation--><g id="link_Formateur_Consulter la liste des projets r&#233;alis&#233;s en attente de validation"><path d="M72.11,135 C88.81,135 110.78,135 134.97,135 " fill="none" id="Formateur-Consulter la liste des projets r&#233;alis&#233;s en attente de validation" style="stroke:#181818;stroke-width:1.0;"/></g><!--reverse link Consulter la liste des projets r?alis?s en attente de validation to Valider un Projet--><g id="link_Consulter la liste des projets r&#233;alis&#233;s en attente de validation_Valider un Projet"><path d="M553.16,135 C596.23,135 633.03,135 667.62,135 " fill="none" id="Consulter la liste des projets r&#233;alis&#233;s en attente de validation-backto-Valider un Projet" style="stroke:#181818;stroke-width:1.0;stroke-dasharray:7.0,7.0;"/><polygon fill="#181818" points="547.16,135,556.16,139,552.16,135,556.16,131,547.16,135" style="stroke:#181818;stroke-width:1.0;"/><text fill="#000000" font-family="sans-serif" font-size="13" lengthAdjust="spacing" textLength="55" x="580" y="131.4951">&#171;Extend&#187;</text></g><!--SRC=[hP1DQiCm48NtEiLRsela0CK4IdzsXK8Xso3aYQD6aTJHg1HA3kHp-6ALR6XA2wMBQZM8D-zxRnpj1HB0TZW8Uijan0Qlj970k0zyqaAPLNbHcwCU2F4ux5wrixskoeHtfQ20Pbl_Y94z7ZayaxJerciqjzEujzuo72LSnrWGTbv5JzX-6Y66p307_P899fpYD0fvG-rLrzszbR7VR7x3F6cRB1NFX0TAgIHDVx8yuritfa98SwPTd0cr8Ix7m6g5vgPKpqvA4ATHzBAWbuK4diRgCeq9vA6bm6O5BfThg-b_-2pzVzxbQqjrLXy0]--></g></svg>