<?xml version="1.0" encoding="us-ascii" standalone="no"?><svg xmlns="http://www.w3.org/2000/svg" xmlns:xlink="http://www.w3.org/1999/xlink" contentStyleType="text/css" height="319px" preserveAspectRatio="none" style="width:1305px;height:319px;background:#FFFFFF;" version="1.1" viewBox="0 0 1305 319" width="1305px" zoomAndPan="magnify"><defs/><g><!--cluster pkg_validations--><g id="cluster_pkg_validations"><path d="M590.5,6 L702.5,6 A3.75,3.75 0 0 1 705,8.5 L712,29.6094 L1295.5,29.6094 A2.5,2.5 0 0 1 1298,32.1094 L1298,255.5 A2.5,2.5 0 0 1 1295.5,258 L590.5,258 A2.5,2.5 0 0 1 588,255.5 L588,8.5 A2.5,2.5 0 0 1 590.5,6 " fill="none" style="stroke:#000000;stroke-width:1.5;"/><line style="stroke:#000000;stroke-width:1.5;" x1="588" x2="712" y1="29.6094" y2="29.6094"/><text fill="#000000" font-family="sans-serif" font-size="14" font-weight="bold" lengthAdjust="spacing" textLength="111" x="592" y="22.5332">pkg_validations</text></g><!--cluster pkg_realisation_projet--><g id="cluster_pkg_realisation_projet"><path d="M118.5,172 L277.5,172 A3.75,3.75 0 0 1 280,174.5 L287,195.6094 L557.5,195.6094 A2.5,2.5 0 0 1 560,198.1094 L560,309.5 A2.5,2.5 0 0 1 557.5,312 L118.5,312 A2.5,2.5 0 0 1 116,309.5 L116,174.5 A2.5,2.5 0 0 1 118.5,172 " fill="none" style="stroke:#000000;stroke-width:1.5;"/><line style="stroke:#000000;stroke-width:1.5;" x1="116" x2="287" y1="195.6094" y2="195.6094"/><text fill="#000000" font-family="sans-serif" font-size="14" font-weight="bold" lengthAdjust="spacing" textLength="158" x="120" y="188.5332">pkg_realisation_projet</text></g><g id="elem_Consulter le Tableau de Bord"><ellipse cx="715.347" cy="67.1694" fill="#00BFFF" rx="111.347" ry="24.6694" style="stroke:#181818;stroke-width:0.5;"/><text fill="#000000" font-family="sans-serif" font-size="14" lengthAdjust="spacing" textLength="186" x="622.347" y="70.8979">Consulter le Tableau de Bord</text></g><g id="elem_Recevoir des Notifications"><ellipse cx="715.4506" cy="149.0901" fill="#00BFFF" rx="100.9506" ry="22.5901" style="stroke:#181818;stroke-width:0.5;"/><text fill="#000000" font-family="sans-serif" font-size="14" lengthAdjust="spacing" textLength="163" x="633.9506" y="152.8186">Recevoir des Notifications</text></g><g id="elem_Valider un Projet"><ellipse cx="715.355" cy="224.171" fill="#F1F1F1" rx="76.355" ry="17.671" style="stroke:#181818;stroke-width:0.5;"/><text fill="#000000" font-family="sans-serif" font-size="14" lengthAdjust="spacing" textLength="105" x="660.1233" y="228.6255">Valider un Projet</text></g><g id="elem_D&#233;finir les Niveaux de Validation pour chaque comp&#233;tence"><ellipse cx="1084.5464" cy="199.9093" fill="#F1F1F1" rx="197.5464" ry="41.9093" style="stroke:#181818;stroke-width:0.5;"/><text fill="#000000" font-family="sans-serif" font-size="14" lengthAdjust="spacing" textLength="367" x="901.0464" y="203.6378">D&#233;finir les Niveaux de Validation pour chaque comp&#233;tence</text></g><g id="elem_Ajouter des Commentaires"><ellipse cx="1084.7412" cy="99.9482" fill="#F1F1F1" rx="102.7412" ry="22.9482" style="stroke:#181818;stroke-width:0.5;"/><text fill="#000000" font-family="sans-serif" font-size="14" lengthAdjust="spacing" textLength="167" x="1001.2412" y="103.6768">Ajouter des Commentaires</text></g><g id="elem_Consulter la liste des projets r&#233;alis&#233;s en attente de validation"><ellipse cx="337.8351" cy="252.067" fill="#F1F1F1" rx="205.8351" ry="43.567" style="stroke:#181818;stroke-width:0.5;"/><text fill="#000000" font-family="sans-serif" font-size="14" lengthAdjust="spacing" textLength="384" x="145.8351" y="255.7955">Consulter la liste des projets r&#233;alis&#233;s en attente de validation</text></g><!--entity Formateur--><g id="elem_Formateur"><ellipse cx="39" cy="107.5" fill="#F1F1F1" rx="8" ry="8" style="stroke:#181818;stroke-width:0.5;"/><path d="M39,115.5 L39,142.5 M26,123.5 L52,123.5 M39,142.5 L26,157.5 M39,142.5 L52,157.5 " fill="none" style="stroke:#181818;stroke-width:0.5;"/><text fill="#000000" font-family="sans-serif" font-size="14" lengthAdjust="spacing" textLength="66" x="6" y="173.5332">Formateur</text></g><!--link Formateur to Consulter le Tableau de Bord--><g id="link_Formateur_Consulter le Tableau de Bord"><path d="M72.15,126.5 C83.36,122.91 96.11,119.3 108,117 C279.29,83.9 481.94,72.7 604.24,68.92 " fill="none" id="Formateur-Consulter le Tableau de Bord" style="stroke:#181818;stroke-width:1.0;"/></g><!--link Formateur to Recevoir des Notifications--><g id="link_Formateur_Recevoir des Notifications"><path d="M72.08,138.52 C168.69,140.1 459.72,144.85 614.76,147.37 " fill="none" id="Formateur-Recevoir des Notifications" style="stroke:#181818;stroke-width:1.0;"/></g><!--reverse link Valider un Projet to D?finir les Niveaux de Validation pour chaque comp?tence--><g id="link_Valider un Projet_D&#233;finir les Niveaux de Validation pour chaque comp&#233;tence"><path d="M795.4372,218.8377 C826.2672,216.8177 857.75,214.76 895.48,212.3 " fill="none" id="Valider un Projet-backto-D&#233;finir les Niveaux de Validation pour chaque comp&#233;tence" style="stroke:#181818;stroke-width:1.0;stroke-dasharray:7.0,7.0;"/><polygon fill="#181818" points="789.45,219.23,798.6923,222.633,794.4393,218.9031,798.1692,214.6501,789.45,219.23" style="stroke:#181818;stroke-width:1.0;"/></g><!--reverse link Valider un Projet to Ajouter des Commentaires--><g id="link_Valider un Projet_Ajouter des Commentaires"><path d="M775.3462,209.9072 C794.1162,204.3872 809.21,198.62 827,189 C857.28,172.62 855.89,154.75 887,140 C919.09,124.78 956.8,115.34 990.56,109.49 " fill="none" id="Valider un Projet-backto-Ajouter des Commentaires" style="stroke:#181818;stroke-width:1.0;stroke-dasharray:7.0,7.0;"/><polygon fill="#181818" points="769.59,211.6,779.3529,212.8982,774.3869,210.1893,777.0958,205.2233,769.59,211.6" style="stroke:#181818;stroke-width:1.0;"/></g><!--link Formateur to Consulter la liste des projets r?alis?s en attente de validation--><g id="link_Formateur_Consulter la liste des projets r&#233;alis&#233;s en attente de validation"><path d="M72.07,150.31 C111.44,165.42 180.08,191.77 237.63,213.86 " fill="none" id="Formateur-Consulter la liste des projets r&#233;alis&#233;s en attente de validation" style="stroke:#181818;stroke-width:1.0;"/></g><!--reverse link Consulter la liste des projets r?alis?s en attente de validation to Valider un Projet--><g id="link_Consulter la liste des projets r&#233;alis&#233;s en attente de validation_Valider un Projet"><path d="M538.5034,237.1241 C577.8234,234.1941 610.81,231.73 642.55,229.37 " fill="none" id="Consulter la liste des projets r&#233;alis&#233;s en attente de validation-backto-Valider un Projet" style="stroke:#181818;stroke-width:1.0;stroke-dasharray:7.0,7.0;"/><polygon fill="#181818" points="532.52,237.57,541.7924,240.8901,537.5062,237.1984,541.1979,232.9123,532.52,237.57" style="stroke:#181818;stroke-width:1.0;"/></g><!--SRC=[hP5DJiCm48NtFiMJs2IBjXTW0wrOeWfGjvNhJ5etFmxEE09L72ZdoCKO9nALMb4sUEN5c- -zDrDIpc07R_S7HcOz6RQkLjgmytXolj9CmIjvZJQ5tXEQOh_jT6ap7PKjJWh9KZwXPF8e2MzwLv8Eo0YFpcSfSBSYQbwBprqPIDGlPAXprekYnRDZcripmKHxeLOA2kSWcCt-S5jSoM_OBGIFP1FR22tKM7jt94vnFvyZMGrzRciRRMJGTcBp4NqsF-tHE34n1_qU2CPLpT0prORIMzY7eminV8opT5L5DMjPV1k7bFh2nQuz2QSTxRRDo3d5rB_lH4FqJ2D_6cZXXpvIXhu5rT0iAKS5pfUCzl_2cLfUjvTkwXi0]--></g></svg>