<?xml version="1.0" encoding="us-ascii" standalone="no"?><svg xmlns="http://www.w3.org/2000/svg" xmlns:xlink="http://www.w3.org/1999/xlink" contentStyleType="text/css" height="674px" preserveAspectRatio="none" style="width:1009px;height:674px;background:#FFFFFF;" version="1.1" viewBox="0 0 1009 674" width="1009px" zoomAndPan="magnify"><defs/><g><!--cluster pkg_validations--><g id="cluster_pkg_validations"><path d="M118.5,6 L230.5,6 A3.75,3.75 0 0 1 233,8.5 L240,29.6094 L999.5,29.6094 A2.5,2.5 0 0 1 1002,32.1094 L1002,531.5 A2.5,2.5 0 0 1 999.5,534 L118.5,534 A2.5,2.5 0 0 1 116,531.5 L116,8.5 A2.5,2.5 0 0 1 118.5,6 " fill="none" style="stroke:#000000;stroke-width:1.5;"/><line style="stroke:#000000;stroke-width:1.5;" x1="116" x2="240" y1="29.6094" y2="29.6094"/><text fill="#000000" font-family="sans-serif" font-size="14" font-weight="bold" lengthAdjust="spacing" textLength="111" x="120" y="22.5332">pkg_validations</text></g><g id="elem_&#201;valuer un Projet"><ellipse cx="331.396" cy="378.9792" fill="#F1F1F1" rx="77.896" ry="17.9792" style="stroke:#181818;stroke-width:0.5;"/><text fill="#000000" font-family="sans-serif" font-size="14" lengthAdjust="spacing" textLength="109" x="274.9355" y="383.2466">&#201;valuer un Projet</text></g><g id="elem_Ajouter des Commentaires"><ellipse cx="788.7412" cy="490.9482" fill="#F1F1F1" rx="102.7412" ry="22.9482" style="stroke:#181818;stroke-width:0.5;"/><text fill="#000000" font-family="sans-serif" font-size="14" lengthAdjust="spacing" textLength="167" x="705.2412" y="494.6768">Ajouter des Commentaires</text></g><g id="elem_D&#233;finir les Niveaux de Validation pour chaque comp&#233;tence "><ellipse cx="331.4951" cy="474.799" fill="#F1F1F1" rx="199.4951" ry="42.299" style="stroke:#181818;stroke-width:0.5;"/><text fill="#000000" font-family="sans-serif" font-size="14" lengthAdjust="spacing" textLength="367" x="145.9951" y="478.5275">D&#233;finir les Niveaux de Validation pour chaque comp&#233;tence</text></g><g id="elem_Consulter le Tableau de Bord"><ellipse cx="331.347" cy="301.1694" fill="#F1F1F1" rx="111.347" ry="24.6694" style="stroke:#181818;stroke-width:0.5;"/><text fill="#000000" font-family="sans-serif" font-size="14" lengthAdjust="spacing" textLength="186" x="238.347" y="304.8979">Consulter le Tableau de Bord</text></g><g id="elem_Recevoir des Notifications"><ellipse cx="331.4506" cy="219.0901" fill="#F1F1F1" rx="100.9506" ry="22.5901" style="stroke:#181818;stroke-width:0.5;"/><text fill="#000000" font-family="sans-serif" font-size="14" lengthAdjust="spacing" textLength="163" x="249.9506" y="222.8186">Recevoir des Notifications</text></g><g id="elem_Soumettre un Projet"><ellipse cx="331.3478" cy="141.8696" fill="#F1F1F1" rx="84.8478" ry="19.3696" style="stroke:#181818;stroke-width:0.5;"/><text fill="#000000" font-family="sans-serif" font-size="14" lengthAdjust="spacing" textLength="126" x="268.3478" y="145.5981">Soumettre un Projet</text></g><g id="elem_Consulter les &#201;valuations"><ellipse cx="331.613" cy="64.8226" fill="#F1F1F1" rx="99.613" ry="22.3226" style="stroke:#181818;stroke-width:0.5;"/><text fill="#000000" font-family="sans-serif" font-size="14" lengthAdjust="spacing" textLength="160" x="251.613" y="68.5511">Consulter les &#201;valuations</text></g><g id="elem_D&#233;finir les Niveaux de Validation pour chaque comp&#233;tence"><ellipse cx="788.5464" cy="386.9093" fill="#F1F1F1" rx="197.5464" ry="41.9093" style="stroke:#181818;stroke-width:0.5;"/><text fill="#000000" font-family="sans-serif" font-size="14" lengthAdjust="spacing" textLength="367" x="605.0464" y="390.6378">D&#233;finir les Niveaux de Validation pour chaque comp&#233;tence</text></g><g id="elem_Voir les statistiques d'&#201;valuation"><ellipse cx="788.665" cy="68.233" fill="#F1F1F1" rx="119.165" ry="26.233" style="stroke:#181818;stroke-width:0.5;"/><text fill="#000000" font-family="sans-serif" font-size="14" lengthAdjust="spacing" textLength="203" x="687.165" y="71.9615">Voir les statistiques d'&#201;valuation</text></g><g id="elem_Voir les Projets en Attente"><ellipse cx="788.3975" cy="287.1795" fill="#F1F1F1" rx="101.3975" ry="22.6795" style="stroke:#181818;stroke-width:0.5;"/><text fill="#000000" font-family="sans-serif" font-size="14" lengthAdjust="spacing" textLength="164" x="706.3975" y="290.908">Voir les Projets en Attente</text></g><!--entity Formateur--><g id="elem_Formateur"><ellipse cx="39" cy="348.5" fill="#F1F1F1" rx="8" ry="8" style="stroke:#181818;stroke-width:0.5;"/><path d="M39,356.5 L39,383.5 M26,364.5 L52,364.5 M39,383.5 L26,398.5 M39,383.5 L52,398.5 " fill="none" style="stroke:#181818;stroke-width:0.5;"/><text fill="#000000" font-family="sans-serif" font-size="14" lengthAdjust="spacing" textLength="66" x="6" y="414.5332">Formateur</text></g><!--entity Apprenant--><g id="elem_Apprenant"><ellipse cx="39" cy="111.5" fill="#F1F1F1" rx="8" ry="8" style="stroke:#181818;stroke-width:0.5;"/><path d="M39,119.5 L39,146.5 M26,127.5 L52,127.5 M39,146.5 L26,161.5 M39,146.5 L52,161.5 " fill="none" style="stroke:#181818;stroke-width:0.5;"/><text fill="#000000" font-family="sans-serif" font-size="14" lengthAdjust="spacing" textLength="66" x="6" y="177.5332">Apprenant</text></g><!--link Formateur to ?valuer un Projet--><g id="link_Formateur_&#201;valuer un Projet"><path d="M72.2,379 C115.56,379 188.08,379 247.21,379 " fill="none" id="Formateur-to-&#201;valuer un Projet" style="stroke:#181818;stroke-width:1.0;"/><polygon fill="#181818" points="253.21,379,244.21,375,248.21,379,244.21,383,253.21,379" style="stroke:#181818;stroke-width:1.0;"/></g><!--link Formateur to Ajouter des Commentaires--><g id="link_Formateur_Ajouter des Commentaires"><path d="M44.96,418.13 C51.99,455.31 68.7,509.26 108,535 C310.48,667.62 618.1939,562.2392 735.5039,513.8192 " fill="none" id="Formateur-to-Ajouter des Commentaires" style="stroke:#181818;stroke-width:1.0;"/><polygon fill="#181818" points="741.05,511.53,731.2047,511.2663,736.4282,513.4377,734.2569,518.6612,741.05,511.53" style="stroke:#181818;stroke-width:1.0;"/></g><!--link Formateur to D?finir les Niveaux de Validation pour chaque comp?tence --><g id="link_Formateur_D&#233;finir les Niveaux de Validation pour chaque comp&#233;tence "><path d="M72.22,397.32 C83.33,403.16 96,409.32 108,414 C136.46,425.08 161.9258,433.3393 191.7758,441.7693 " fill="none" id="Formateur-to-D&#233;finir les Niveaux de Validation pour chaque comp&#233;tence " style="stroke:#181818;stroke-width:1.0;"/><polygon fill="#181818" points="197.55,443.4,189.9759,437.1045,192.7382,442.0411,187.8016,444.8034,197.55,443.4" style="stroke:#181818;stroke-width:1.0;"/></g><!--link Formateur to Consulter le Tableau de Bord--><g id="link_Formateur_Consulter le Tableau de Bord"><path d="M72.3,359.35 C83.31,353.35 95.9,347.23 108,343 C148.07,328.97 188.0088,320.2694 227.6488,313.7794 " fill="none" id="Formateur-to-Consulter le Tableau de Bord" style="stroke:#181818;stroke-width:1.0;"/><polygon fill="#181818" points="233.57,312.81,224.042,310.3167,228.6357,313.6179,225.3345,318.2116,233.57,312.81" style="stroke:#181818;stroke-width:1.0;"/></g><!--link Formateur to Recevoir des Notifications--><g id="link_Formateur_Recevoir des Notifications"><path d="M52.16,339.92 C62.62,312.94 80.45,278.52 108,259 C143.22,234.03 183.2928,223.7665 224.3428,219.4565 " fill="none" id="Formateur-to-Recevoir des Notifications" style="stroke:#181818;stroke-width:1.0;"/><polygon fill="#181818" points="230.31,218.83,220.9415,215.7916,225.3373,219.3521,221.7769,223.7479,230.31,218.83" style="stroke:#181818;stroke-width:1.0;"/></g><!--link Apprenant to Soumettre un Projet--><g id="link_Apprenant_Soumettre un Projet"><path d="M72.2,142 C113.93,142 182.25,142 240.49,142 " fill="none" id="Apprenant-to-Soumettre un Projet" style="stroke:#181818;stroke-width:1.0;"/><polygon fill="#181818" points="246.49,142,237.49,138,241.49,142,237.49,146,246.49,142" style="stroke:#181818;stroke-width:1.0;"/></g><!--link Apprenant to Consulter les ?valuations--><g id="link_Apprenant_Consulter les &#201;valuations"><path d="M72.22,121.72 C83.22,115.55 95.83,109.28 108,105 C150.58,90.02 193.8627,81.2952 235.1727,75.2752 " fill="none" id="Apprenant-to-Consulter les &#201;valuations" style="stroke:#181818;stroke-width:1.0;"/><polygon fill="#181818" points="241.11,74.41,231.6273,71.7496,236.1623,75.131,232.7809,79.666,241.11,74.41" style="stroke:#181818;stroke-width:1.0;"/></g><!--link Apprenant to Recevoir des Notifications--><g id="link_Apprenant_Recevoir des Notifications"><path d="M72.22,162.27 C83.22,168.44 95.83,174.72 108,179 C150.21,193.84 193.0138,202.5172 234.0938,208.5572 " fill="none" id="Apprenant-to-Recevoir des Notifications" style="stroke:#181818;stroke-width:1.0;"/><polygon fill="#181818" points="240.03,209.43,231.7076,204.1634,235.0832,208.7027,230.5439,212.0783,240.03,209.43" style="stroke:#181818;stroke-width:1.0;"/></g><!--reverse link ?valuer un Projet to D?finir les Niveaux de Validation pour chaque comp?tence--><g id="link_&#201;valuer un Projet_D&#233;finir les Niveaux de Validation pour chaque comp&#233;tence"><path d="M415.4291,380.4555 C465.4691,381.3355 527.17,382.42 591.45,383.55 " fill="none" id="&#201;valuer un Projet-backto-D&#233;finir les Niveaux de Validation pour chaque comp&#233;tence" style="stroke:#181818;stroke-width:1.0;stroke-dasharray:7.0,7.0;"/><polygon fill="#181818" points="409.43,380.35,418.3583,384.5076,414.4292,380.4379,418.4989,376.5089,409.43,380.35" style="stroke:#181818;stroke-width:1.0;"/></g><!--reverse link ?valuer un Projet to Ajouter des Commentaires--><g id="link_&#201;valuer un Projet_Ajouter des Commentaires"><path d="M408.6214,387.3762 C447.2014,392.8062 489.56,400.89 531,415 C559.41,424.67 562.81,435.67 591,446 C627.97,459.53 670.4,469.86 706.34,477.19 " fill="none" id="&#201;valuer un Projet-backto-Ajouter des Commentaires" style="stroke:#181818;stroke-width:1.0;stroke-dasharray:7.0,7.0;"/><polygon fill="#181818" points="402.68,386.54,411.0347,391.7553,407.6312,387.2369,412.1497,383.8334,402.68,386.54" style="stroke:#181818;stroke-width:1.0;"/></g><!--reverse link Consulter les ?valuations to Voir les statistiques d'?valuation--><g id="link_Consulter les &#201;valuations_Voir les statistiques d'&#201;valuation"><path d="M437.2299,65.6895 C507.1399,66.1495 595.25,66.73 669.19,67.22 " fill="none" id="Consulter les &#201;valuations-backto-Voir les statistiques d'&#201;valuation" style="stroke:#181818;stroke-width:1.0;stroke-dasharray:7.0,7.0;"/><polygon fill="#181818" points="431.23,65.65,440.2035,69.7091,436.2299,65.6829,440.2561,61.7093,431.23,65.65" style="stroke:#181818;stroke-width:1.0;"/></g><!--reverse link Consulter le Tableau de Bord to Voir les Projets en Attente--><g id="link_Consulter le Tableau de Bord_Voir les Projets en Attente"><path d="M448.0572,297.4356 C522.8672,295.1356 615.2,292.3 687.82,290.06 " fill="none" id="Consulter le Tableau de Bord-backto-Voir les Projets en Attente" style="stroke:#181818;stroke-width:1.0;stroke-dasharray:7.0,7.0;"/><polygon fill="#181818" points="442.06,297.62,451.1787,301.3415,447.0576,297.4663,450.9328,293.3453,442.06,297.62" style="stroke:#181818;stroke-width:1.0;"/></g><!--SRC=[fP51JiCm44NtFiNVGHRj2H1IAM9P8K3T8kDCKhU99zZZ2Wbn08xIS-HYE4effOdAWgMjz__yFrDH8H26j-LAa5jFHYmxfOsmnntxMWj5lt_FciQJqqwKQhJPw9BGRChdhQvihZjTmBjI-D5XChd6PVkPY4WUqU7Uyvea6qApDKT9J4u1SwvhSg9Jd322thQxmZhhKILsORUaurlIONd8WOOJR5RwDH8Crqsx4tA6CE8sJx5ZrOsk24_wfKfsdTiD-tm4Vo13MxPzq0MBBQpfksTTzSEAUlgHOqqYddvtFw6E8mJqw_hs7C1_11ZRDgwcq_-iBJlhU-vovwhrwYNl4mL9_q5icXsGNnoX0wF1cKwi-dW1v32Jr41I0_K1g2y0]--></g></svg>