<?xml version="1.0" encoding="us-ascii" standalone="no"?><svg xmlns="http://www.w3.org/2000/svg" xmlns:xlink="http://www.w3.org/1999/xlink" contentStyleType="text/css" height="638px" preserveAspectRatio="none" style="width:1009px;height:638px;background:#FFFFFF;" version="1.1" viewBox="0 0 1009 638" width="1009px" zoomAndPan="magnify"><defs/><g><!--cluster pkg_competences--><g id="cluster_pkg_competences"><path d="M229.5,6 L359.5,6 A3.75,3.75 0 0 1 362,8.5 L369,29.6094 L999.5,29.6094 A2.5,2.5 0 0 1 1002,32.1094 L1002,628.5 A2.5,2.5 0 0 1 999.5,631 L229.5,631 A2.5,2.5 0 0 1 227,628.5 L227,8.5 A2.5,2.5 0 0 1 229.5,6 " fill="none" style="stroke:#000000;stroke-width:1.5;"/><line style="stroke:#000000;stroke-width:1.5;" x1="227" x2="369" y1="29.6094" y2="29.6094"/><text fill="#000000" font-family="sans-serif" font-size="14" font-weight="bold" lengthAdjust="spacing" textLength="129" x="231" y="22.5332">pkg_competences</text></g><g id="elem_Gestion des comp&#233;tences"><ellipse cx="409.8975" cy="337.1795" fill="#F1F1F1" rx="101.3975" ry="22.6795" style="stroke:#181818;stroke-width:0.5;"/><text fill="#000000" font-family="sans-serif" font-size="14" lengthAdjust="spacing" textLength="164" x="327.8975" y="340.908">Gestion des comp&#233;tences</text></g><g id="elem_Gestion des niveaux de comp&#233;tences"><ellipse cx="410.0829" cy="71.8166" fill="#F1F1F1" rx="134.5829" ry="29.3166" style="stroke:#181818;stroke-width:0.5;"/><text fill="#000000" font-family="sans-serif" font-size="14" lengthAdjust="spacing" textLength="236" x="292.0829" y="75.5451">Gestion des niveaux de comp&#233;tences</text></g><g id="elem_Gestion des technologies"><ellipse cx="410.113" cy="158.8226" fill="#F1F1F1" rx="99.613" ry="22.3226" style="stroke:#181818;stroke-width:0.5;"/><text fill="#000000" font-family="sans-serif" font-size="14" lengthAdjust="spacing" textLength="160" x="330.113" y="162.5511">Gestion des technologies</text></g><g id="elem_Gestion des cat&#233;gories des technologies"><ellipse cx="410.0214" cy="247.8043" fill="#F1F1F1" rx="144.5214" ry="31.3043" style="stroke:#181818;stroke-width:0.5;"/><text fill="#000000" font-family="sans-serif" font-size="14" lengthAdjust="spacing" textLength="257" x="281.5214" y="251.5328">Gestion des cat&#233;gories des technologies</text></g><g id="elem_Gestion des modules"><ellipse cx="409.8193" cy="414.9639" fill="#F1F1F1" rx="87.8193" ry="19.9639" style="stroke:#181818;stroke-width:0.5;"/><text fill="#000000" font-family="sans-serif" font-size="14" lengthAdjust="spacing" textLength="133" x="343.3193" y="418.6924">Gestion des modules</text></g><g id="elem_Gestion des fili&#232;re"><ellipse cx="409.8789" cy="488.8758" fill="#F1F1F1" rx="79.8789" ry="18.3758" style="stroke:#181818;stroke-width:0.5;"/><text fill="#000000" font-family="sans-serif" font-size="14" lengthAdjust="spacing" textLength="114" x="351.8373" y="492.9024">Gestion des fili&#232;re</text></g><g id="elem_Lire les guite des comp&#233;teneces et des modules"><ellipse cx="410.0185" cy="578.8037" fill="#F1F1F1" rx="167.0185" ry="35.8037" style="stroke:#181818;stroke-width:0.5;"/><text fill="#000000" font-family="sans-serif" font-size="14" lengthAdjust="spacing" textLength="304" x="258.0185" y="582.5322">Lire les guite des comp&#233;teneces et des modules</text></g><g id="elem_Ajouter"><ellipse cx="838.811" cy="268.9535" fill="#F1F1F1" rx="43.311" ry="15.4535" style="stroke:#181818;stroke-width:0.5;"/><text fill="#000000" font-family="sans-serif" font-size="14" lengthAdjust="spacing" textLength="45" x="815.8228" y="272.8329">Ajouter</text></g><g id="elem_Affecter la technologie &#224; une comp&#233;tence"><ellipse cx="838.8995" cy="168.7799" fill="#F1F1F1" rx="146.8995" ry="31.7799" style="stroke:#181818;stroke-width:0.5;"/><text fill="#000000" font-family="sans-serif" font-size="14" lengthAdjust="spacing" textLength="262" x="707.8995" y="172.5084">Affecter la technologie &#224; une comp&#233;tence</text></g><g id="elem_Affecter la technologie &#224; une cat&#233;gorie"><ellipse cx="838.859" cy="72.0718" fill="#F1F1F1" rx="138.359" ry="30.0718" style="stroke:#181818;stroke-width:0.5;"/><text fill="#000000" font-family="sans-serif" font-size="14" lengthAdjust="spacing" textLength="244" x="716.859" y="75.8003">Affecter la technologie &#224; une cat&#233;gorie</text></g><!--entity formateur--><g id="elem_formateur"><ellipse cx="93" cy="173.5" fill="#F1F1F1" rx="8" ry="8" style="stroke:#181818;stroke-width:0.5;"/><path d="M93,181.5 L93,208.5 M80,189.5 L106,189.5 M93,208.5 L80,223.5 M93,208.5 L106,223.5 " fill="none" style="stroke:#181818;stroke-width:0.5;"/><text fill="#000000" font-family="sans-serif" font-size="14" lengthAdjust="spacing" textLength="66" x="60" y="239.5332">Formateur</text></g><!--entity Responsable_de_formation--><g id="elem_Responsable_de_formation"><ellipse cx="93" cy="429.5" fill="#F1F1F1" rx="8" ry="8" style="stroke:#181818;stroke-width:0.5;"/><path d="M93,437.5 L93,464.5 M80,445.5 L106,445.5 M93,464.5 L80,479.5 M93,464.5 L106,479.5 " fill="none" style="stroke:#181818;stroke-width:0.5;"/><text fill="#000000" font-family="sans-serif" font-size="14" lengthAdjust="spacing" textLength="174" x="6" y="495.5332">Responsable_de_formation</text></g><!--link formateur to Gestion des comp?tences--><g id="link_formateur_Gestion des comp&#233;tences"><path d="M126.22,234.17 C150.09,254.89 184.35,281.38 219,297 C250.5,311.2 281.3277,319.3616 314.0577,325.3416 " fill="none" id="formateur-to-Gestion des comp&#233;tences" style="stroke:#181818;stroke-width:1.0;"/><polygon fill="#181818" points="319.96,326.42,311.8255,320.8676,315.0414,325.5213,310.3876,328.7373,319.96,326.42" style="stroke:#181818;stroke-width:1.0;"/></g><!--link formateur to Gestion des niveaux de comp?tences--><g id="link_formateur_Gestion des niveaux de comp&#233;tences"><path d="M126.04,177.48 C150.23,158.68 184.97,134.19 219,119 C246,106.95 270.7623,99.0874 299.3823,92.0774 " fill="none" id="formateur-to-Gestion des niveaux de comp&#233;tences" style="stroke:#181818;stroke-width:1.0;"/><polygon fill="#181818" points="305.21,90.65,295.5168,88.906,300.3536,91.8395,297.42,96.6763,305.21,90.65" style="stroke:#181818;stroke-width:1.0;"/></g><!--link formateur to Gestion des technologies--><g id="link_formateur_Gestion des technologies"><path d="M126.23,199.4 C172.72,192.75 254.2604,181.1092 319.6604,171.7592 " fill="none" id="formateur-to-Gestion des technologies" style="stroke:#181818;stroke-width:1.0;"/><polygon fill="#181818" points="325.6,170.91,316.1245,168.224,320.6503,171.6176,317.2567,176.1435,325.6,170.91" style="stroke:#181818;stroke-width:1.0;"/></g><!--link formateur to Gestion des cat?gories des technologies--><g id="link_formateur_Gestion des cat&#233;gories des technologies"><path d="M126.23,208.5 C164.18,213.8 223.4776,222.0909 281.7476,230.2209 " fill="none" id="formateur-to-Gestion des cat&#233;gories des technologies" style="stroke:#181818;stroke-width:1.0;"/><polygon fill="#181818" points="287.69,231.05,279.3291,225.8447,282.738,230.3591,278.2236,233.768,287.69,231.05" style="stroke:#181818;stroke-width:1.0;"/></g><!--link Responsable_de_formation to Gestion des comp?tences--><g id="link_Responsable_de_formation_Gestion des comp&#233;tences"><path d="M143.51,420.82 C165.53,405.11 192.45,388.13 219,377 C251.33,363.45 282.8491,355.3959 315.8891,349.3159 " fill="none" id="Responsable_de_formation-to-Gestion des comp&#233;tences" style="stroke:#181818;stroke-width:1.0;"/><polygon fill="#181818" points="321.79,348.23,312.2147,345.9249,316.8726,349.1349,313.6625,353.7928,321.79,348.23" style="stroke:#181818;stroke-width:1.0;"/></g><!--link Responsable_de_formation to Gestion des modules--><g id="link_Responsable_de_formation_Gestion des modules"><path d="M180.08,447.7 C228.62,440.77 282.7103,433.0385 329.1203,426.4085 " fill="none" id="Responsable_de_formation-to-Gestion des modules" style="stroke:#181818;stroke-width:1.0;"/><polygon fill="#181818" points="335.06,425.56,325.5848,422.873,330.1103,426.2671,326.7161,430.7926,335.06,425.56" style="stroke:#181818;stroke-width:1.0;"/></g><!--link Responsable_de_formation to Gestion des fili?re--><g id="link_Responsable_de_formation_Gestion des fili&#232;re"><path d="M180.08,467.92 C228.71,472.4 282.9053,477.3894 329.3453,481.6694 " fill="none" id="Responsable_de_formation-to-Gestion des fili&#232;re" style="stroke:#181818;stroke-width:1.0;"/><polygon fill="#181818" points="335.32,482.22,326.7251,477.4109,330.3411,481.7611,325.9909,485.3772,335.32,482.22" style="stroke:#181818;stroke-width:1.0;"/></g><!--link Responsable_de_formation to Lire les guite des comp?teneces et des modules--><g id="link_Responsable_de_formation_Lire les guite des comp&#233;teneces et des modules"><path d="M162.91,499 C180.84,508.26 200.36,517.59 219,525 C244.5,535.13 266.8459,542.5342 293.4559,550.2242 " fill="none" id="Responsable_de_formation-to-Lire les guite des comp&#233;teneces et des modules" style="stroke:#181818;stroke-width:1.0;"/><polygon fill="#181818" points="299.22,551.89,291.6843,545.5486,294.4166,550.5019,289.4633,553.2341,299.22,551.89" style="stroke:#181818;stroke-width:1.0;"/></g><!--reverse link Gestion des technologies to Ajouter--><g id="link_Gestion des technologies_Ajouter"><path d="M485.5861,176.5427 C515.5061,183.6827 545.11,190.88 577,199 C658.61,219.77 754.09,245.83 803.87,259.55 " fill="none" id="Gestion des technologies-backto-Ajouter" style="stroke:#181818;stroke-width:1.0;stroke-dasharray:7.0,7.0;"/><polygon fill="#181818" points="479.75,175.15,487.5757,181.1298,484.6134,176.3106,489.4327,173.3483,479.75,175.15" style="stroke:#181818;stroke-width:1.0;"/><text fill="#000000" font-family="sans-serif" font-size="13" lengthAdjust="spacing" textLength="53" x="608" y="205.4951">&#171;extend&#187;</text></g><!--reverse link Ajouter to Affecter la technologie ? une comp?tence--><g id="link_Ajouter_Affecter la technologie &#224; une comp&#233;tence"><path d="M839,247.38 C839,233.42 839,218.55 839,201.05 " fill="none" id="Ajouter-backto-Affecter la technologie &#224; une comp&#233;tence" style="stroke:#181818;stroke-width:1.0;stroke-dasharray:7.0,7.0;"/><polygon fill="#181818" points="839,253.38,843,244.38,839,248.38,835,244.38,839,253.38" style="stroke:#181818;stroke-width:1.0;"/><text fill="#000000" font-family="sans-serif" font-size="13" lengthAdjust="spacing" textLength="53" x="800.5" y="232.7451">&#171;extend&#187;</text></g><!--reverse link Ajouter to Affecter la technologie ? une cat?gorie--><g id="link_Ajouter_Affecter la technologie &#224; une cat&#233;gorie"><path d="M795.897,259.5142 C725.067,242.4442 588.11,200.15 637,134 C655.42,109.07 683.69,93.85 713.3,84.63 " fill="none" id="Ajouter-backto-Affecter la technologie &#224; une cat&#233;gorie" style="stroke:#181818;stroke-width:1.0;stroke-dasharray:7.0,7.0;"/><polygon fill="#181818" points="801.73,260.92,793.9177,254.9227,796.8692,259.7485,792.0433,262.7,801.73,260.92" style="stroke:#181818;stroke-width:1.0;"/><text fill="#000000" font-family="sans-serif" font-size="13" lengthAdjust="spacing" textLength="53" x="608" y="148.4951">&#171;extend&#187;</text></g><!--SRC=[bLDBJiCm4Dtx54_TG1QDn1P5aTZ0fYik41bdx9ecdiXnK2N4NLZIS-HYE0sVXggqsNdyFlEpAz81WU6jMGUKrfCAbfqGGgh07lViQnceyv0jz7Vm1JvIsx1hvLD5HKd524Vrm3s52T58jP66q6nCeRXkA91JrE9L2Focm7AP0zSFrEuToqWOoFrkP2SuGtRsXMItZUTvka1gxRXYOoyWAndwdM4VkSVYePsJ4phJtJnfpMLNpLPfMzd-mzC5ibLy5uWPO3eRQ5ek3RkZC2rawFsViMPf6l6xP-u2-GIto3BQHgyopyKXaAKnq3g-IVAevA4B-dTqRhBS1FXhDTFhPvr7Lc-045Tm7DiV_mfhoBAsBl8M- -kRXVW4]--></g></svg>